<mxfile host="Electron" agent="Mozilla/5.0 (Windows NT 10.0; Win64; x64) AppleWebKit/537.36 (KHTML, like Gecko) draw.io/26.2.15 Chrome/134.0.6998.205 Electron/35.2.1 Safari/537.36" version="26.2.15">
  <diagram name="Page-1" id="L0YLPYRimjOSDoweE6Rv">
    <mxGraphModel dx="3478" dy="1700" grid="1" gridSize="10" guides="1" tooltips="1" connect="1" arrows="1" fold="1" page="1" pageScale="1" pageWidth="850" pageHeight="1100" math="0" shadow="0">
      <root>
        <mxCell id="0" />
        <mxCell id="1" parent="0" />
        <mxCell id="_IWfdYFuMRl4Ee60OuGf-2" value="&lt;font style=&quot;&quot;&gt;&lt;b style=&quot;&quot;&gt;&lt;font style=&quot;&quot;&gt;&lt;font style=&quot;font-size: 28px;&quot;&gt;Integration Model&lt;/font&gt;&lt;span style=&quot;font-size: 21px;&quot;&gt;&amp;nbsp;&lt;/span&gt;&lt;/font&gt;&lt;/b&gt;&lt;font style=&quot;font-size: 15px;&quot;&gt;(how the tables are related)&lt;/font&gt;&lt;/font&gt;" style="text;html=1;align=center;verticalAlign=middle;whiteSpace=wrap;rounded=0;" parent="1" vertex="1">
          <mxGeometry x="-1820" y="80" width="550" height="30" as="geometry" />
        </mxCell>
        <mxCell id="_IWfdYFuMRl4Ee60OuGf-3" value="&lt;font&gt;crm_cust_info&lt;/font&gt;" style="swimlane;fontStyle=0;childLayout=stackLayout;horizontal=1;startSize=30;horizontalStack=0;resizeParent=1;resizeParentMax=0;resizeLast=0;collapsible=1;marginBottom=0;whiteSpace=wrap;html=1;fillColor=#dae8fc;strokeColor=#6c8ebf;strokeWidth=1;gradientColor=none;swimlaneFillColor=none;swimlaneLine=1;rounded=1;fontSize=15;" parent="1" vertex="1">
          <mxGeometry x="-1710" y="610" width="180" height="110" as="geometry" />
        </mxCell>
        <mxCell id="_IWfdYFuMRl4Ee60OuGf-5" value="&lt;font style=&quot;font-size: 17px;&quot;&gt;cst_id&lt;/font&gt;" style="text;strokeColor=none;fillColor=none;align=left;verticalAlign=middle;spacingLeft=4;spacingRight=4;overflow=hidden;points=[[0,0.5],[1,0.5]];portConstraint=eastwest;rotatable=0;whiteSpace=wrap;html=1;rounded=0;shadow=0;glass=0;strokeWidth=13;" parent="_IWfdYFuMRl4Ee60OuGf-3" vertex="1">
          <mxGeometry y="30" width="180" height="40" as="geometry" />
        </mxCell>
        <mxCell id="_IWfdYFuMRl4Ee60OuGf-27" value="&lt;font style=&quot;font-size: 17px;&quot;&gt;cst_key&lt;/font&gt;" style="text;strokeColor=none;fillColor=none;align=left;verticalAlign=middle;spacingLeft=4;spacingRight=4;overflow=hidden;points=[[0,0.5],[1,0.5]];portConstraint=eastwest;rotatable=0;whiteSpace=wrap;html=1;rounded=0;shadow=0;glass=0;strokeWidth=13;" parent="_IWfdYFuMRl4Ee60OuGf-3" vertex="1">
          <mxGeometry y="70" width="180" height="40" as="geometry" />
        </mxCell>
        <mxCell id="_IWfdYFuMRl4Ee60OuGf-7" value="Customer Information" style="text;html=1;align=center;verticalAlign=middle;whiteSpace=wrap;rounded=0;" parent="1" vertex="1">
          <mxGeometry x="-1710" y="580" width="180" height="30" as="geometry" />
        </mxCell>
        <mxCell id="_IWfdYFuMRl4Ee60OuGf-8" value="&lt;font&gt;crm_prd_info&lt;/font&gt;" style="swimlane;fontStyle=0;childLayout=stackLayout;horizontal=1;startSize=30;horizontalStack=0;resizeParent=1;resizeParentMax=0;resizeLast=0;collapsible=1;marginBottom=0;whiteSpace=wrap;html=1;fillColor=#dae8fc;strokeColor=#6c8ebf;strokeWidth=1;gradientColor=none;swimlaneFillColor=none;swimlaneLine=1;rounded=1;fontSize=15;" parent="1" vertex="1">
          <mxGeometry x="-1700" y="470" width="180" height="70" as="geometry" />
        </mxCell>
        <mxCell id="_IWfdYFuMRl4Ee60OuGf-9" value="&lt;font style=&quot;font-size: 17px;&quot;&gt;prd_key&lt;/font&gt;" style="text;strokeColor=none;fillColor=none;align=left;verticalAlign=middle;spacingLeft=4;spacingRight=4;overflow=hidden;points=[[0,0.5],[1,0.5]];portConstraint=eastwest;rotatable=0;whiteSpace=wrap;html=1;rounded=0;shadow=0;glass=0;strokeWidth=13;" parent="_IWfdYFuMRl4Ee60OuGf-8" vertex="1">
          <mxGeometry y="30" width="180" height="40" as="geometry" />
        </mxCell>
        <mxCell id="_IWfdYFuMRl4Ee60OuGf-10" value="Current &amp;amp; History Product Information" style="text;html=1;align=center;verticalAlign=middle;whiteSpace=wrap;rounded=0;" parent="1" vertex="1">
          <mxGeometry x="-1700" y="440" width="180" height="30" as="geometry" />
        </mxCell>
        <mxCell id="_IWfdYFuMRl4Ee60OuGf-12" value="&lt;font&gt;crm_sales_details&lt;/font&gt;" style="swimlane;fontStyle=0;childLayout=stackLayout;horizontal=1;startSize=30;horizontalStack=0;resizeParent=1;resizeParentMax=0;resizeLast=0;collapsible=1;marginBottom=0;whiteSpace=wrap;html=1;fillColor=#dae8fc;strokeColor=#6c8ebf;strokeWidth=1;gradientColor=none;swimlaneFillColor=none;swimlaneLine=1;rounded=1;fontSize=15;" parent="1" vertex="1">
          <mxGeometry x="-2000" y="520" width="180" height="110" as="geometry" />
        </mxCell>
        <mxCell id="_IWfdYFuMRl4Ee60OuGf-13" value="&lt;span style=&quot;font-size: 17px;&quot;&gt;prd_key&lt;/span&gt;" style="text;strokeColor=none;fillColor=none;align=left;verticalAlign=middle;spacingLeft=4;spacingRight=4;overflow=hidden;points=[[0,0.5],[1,0.5]];portConstraint=eastwest;rotatable=0;whiteSpace=wrap;html=1;rounded=0;shadow=0;glass=0;strokeWidth=13;" parent="_IWfdYFuMRl4Ee60OuGf-12" vertex="1">
          <mxGeometry y="30" width="180" height="40" as="geometry" />
        </mxCell>
        <mxCell id="_IWfdYFuMRl4Ee60OuGf-14" value="&lt;span style=&quot;font-size: 17px;&quot;&gt;cust_id&lt;/span&gt;" style="text;strokeColor=none;fillColor=none;align=left;verticalAlign=middle;spacingLeft=4;spacingRight=4;overflow=hidden;points=[[0,0.5],[1,0.5]];portConstraint=eastwest;rotatable=0;whiteSpace=wrap;html=1;rounded=0;shadow=0;glass=0;strokeWidth=13;" parent="_IWfdYFuMRl4Ee60OuGf-12" vertex="1">
          <mxGeometry y="70" width="180" height="40" as="geometry" />
        </mxCell>
        <mxCell id="_IWfdYFuMRl4Ee60OuGf-15" value="&lt;font style=&quot;font-size: 11px;&quot;&gt;Transactional Records about Sales &amp;amp;Ordersinformation&lt;/font&gt;" style="text;html=1;align=center;verticalAlign=middle;whiteSpace=wrap;rounded=0;" parent="1" vertex="1">
          <mxGeometry x="-2000" y="490" width="180" height="30" as="geometry" />
        </mxCell>
        <mxCell id="_IWfdYFuMRl4Ee60OuGf-23" style="edgeStyle=orthogonalEdgeStyle;rounded=0;orthogonalLoop=1;jettySize=auto;html=1;entryX=0;entryY=0.5;entryDx=0;entryDy=0;" parent="1" source="_IWfdYFuMRl4Ee60OuGf-13" target="_IWfdYFuMRl4Ee60OuGf-9" edge="1">
          <mxGeometry relative="1" as="geometry" />
        </mxCell>
        <mxCell id="_IWfdYFuMRl4Ee60OuGf-24" style="edgeStyle=orthogonalEdgeStyle;rounded=0;orthogonalLoop=1;jettySize=auto;html=1;" parent="1" source="_IWfdYFuMRl4Ee60OuGf-14" target="_IWfdYFuMRl4Ee60OuGf-5" edge="1">
          <mxGeometry relative="1" as="geometry" />
        </mxCell>
        <mxCell id="_IWfdYFuMRl4Ee60OuGf-25" value="&lt;font&gt;erp_cust_az12&lt;/font&gt;" style="swimlane;fontStyle=0;childLayout=stackLayout;horizontal=1;startSize=30;horizontalStack=0;resizeParent=1;resizeParentMax=0;resizeLast=0;collapsible=1;marginBottom=0;whiteSpace=wrap;html=1;fillColor=#fff2cc;strokeColor=#d6b656;strokeWidth=1;swimlaneFillColor=none;swimlaneLine=1;rounded=1;fontSize=15;" parent="1" vertex="1">
          <mxGeometry x="-1390" y="490" width="180" height="70" as="geometry" />
        </mxCell>
        <mxCell id="_IWfdYFuMRl4Ee60OuGf-26" value="&lt;font style=&quot;font-size: 17px;&quot;&gt;cid&lt;/font&gt;" style="text;strokeColor=none;fillColor=none;align=left;verticalAlign=middle;spacingLeft=4;spacingRight=4;overflow=hidden;points=[[0,0.5],[1,0.5]];portConstraint=eastwest;rotatable=0;whiteSpace=wrap;html=1;rounded=0;shadow=0;glass=0;strokeWidth=13;" parent="_IWfdYFuMRl4Ee60OuGf-25" vertex="1">
          <mxGeometry y="30" width="180" height="40" as="geometry" />
        </mxCell>
        <mxCell id="_IWfdYFuMRl4Ee60OuGf-29" value="&lt;font&gt;erp_loc_a101&lt;/font&gt;" style="swimlane;fontStyle=0;childLayout=stackLayout;horizontal=1;startSize=30;horizontalStack=0;resizeParent=1;resizeParentMax=0;resizeLast=0;collapsible=1;marginBottom=0;whiteSpace=wrap;html=1;fillColor=#fff2cc;strokeColor=#d6b656;strokeWidth=1;swimlaneFillColor=none;swimlaneLine=1;rounded=1;fontSize=15;" parent="1" vertex="1">
          <mxGeometry x="-1390" y="620" width="180" height="70" as="geometry" />
        </mxCell>
        <mxCell id="_IWfdYFuMRl4Ee60OuGf-30" value="&lt;font style=&quot;font-size: 17px;&quot;&gt;cid&lt;/font&gt;" style="text;strokeColor=none;fillColor=none;align=left;verticalAlign=middle;spacingLeft=4;spacingRight=4;overflow=hidden;points=[[0,0.5],[1,0.5]];portConstraint=eastwest;rotatable=0;whiteSpace=wrap;html=1;rounded=0;shadow=0;glass=0;strokeWidth=13;" parent="_IWfdYFuMRl4Ee60OuGf-29" vertex="1">
          <mxGeometry y="30" width="180" height="40" as="geometry" />
        </mxCell>
        <mxCell id="_IWfdYFuMRl4Ee60OuGf-31" value="&lt;font&gt;erp_px_cat_g1v2&lt;/font&gt;" style="swimlane;fontStyle=0;childLayout=stackLayout;horizontal=1;startSize=30;horizontalStack=0;resizeParent=1;resizeParentMax=0;resizeLast=0;collapsible=1;marginBottom=0;whiteSpace=wrap;html=1;fillColor=#fff2cc;strokeColor=#d6b656;strokeWidth=1;swimlaneFillColor=none;swimlaneLine=1;rounded=1;fontSize=15;" parent="1" vertex="1">
          <mxGeometry x="-1400" y="350" width="190" height="70" as="geometry" />
        </mxCell>
        <mxCell id="_IWfdYFuMRl4Ee60OuGf-32" value="&lt;font style=&quot;font-size: 17px;&quot;&gt;id&lt;/font&gt;" style="text;strokeColor=none;fillColor=none;align=left;verticalAlign=middle;spacingLeft=4;spacingRight=4;overflow=hidden;points=[[0,0.5],[1,0.5]];portConstraint=eastwest;rotatable=0;whiteSpace=wrap;html=1;rounded=0;shadow=0;glass=0;strokeWidth=13;" parent="_IWfdYFuMRl4Ee60OuGf-31" vertex="1">
          <mxGeometry y="30" width="190" height="40" as="geometry" />
        </mxCell>
        <mxCell id="_IWfdYFuMRl4Ee60OuGf-33" style="edgeStyle=orthogonalEdgeStyle;rounded=0;orthogonalLoop=1;jettySize=auto;html=1;entryX=1;entryY=0.5;entryDx=0;entryDy=0;" parent="1" source="_IWfdYFuMRl4Ee60OuGf-32" target="_IWfdYFuMRl4Ee60OuGf-9" edge="1">
          <mxGeometry relative="1" as="geometry" />
        </mxCell>
        <mxCell id="_IWfdYFuMRl4Ee60OuGf-34" style="edgeStyle=orthogonalEdgeStyle;rounded=0;orthogonalLoop=1;jettySize=auto;html=1;entryX=1;entryY=0.5;entryDx=0;entryDy=0;" parent="1" source="_IWfdYFuMRl4Ee60OuGf-26" target="_IWfdYFuMRl4Ee60OuGf-27" edge="1">
          <mxGeometry relative="1" as="geometry" />
        </mxCell>
        <mxCell id="_IWfdYFuMRl4Ee60OuGf-35" style="edgeStyle=orthogonalEdgeStyle;rounded=0;orthogonalLoop=1;jettySize=auto;html=1;entryX=1;entryY=0.5;entryDx=0;entryDy=0;" parent="1" source="_IWfdYFuMRl4Ee60OuGf-30" target="_IWfdYFuMRl4Ee60OuGf-27" edge="1">
          <mxGeometry relative="1" as="geometry" />
        </mxCell>
        <mxCell id="_IWfdYFuMRl4Ee60OuGf-36" value="" style="rounded=1;whiteSpace=wrap;html=1;fillColor=none;dashed=1;" parent="1" vertex="1">
          <mxGeometry x="-2060" y="310" width="566" height="460" as="geometry" />
        </mxCell>
        <mxCell id="_IWfdYFuMRl4Ee60OuGf-37" value="&lt;b&gt;&lt;font style=&quot;font-size: 22px;&quot;&gt;CRM&lt;/font&gt;&lt;/b&gt;" style="rounded=1;whiteSpace=wrap;html=1;fillColor=#dae8fc;strokeColor=#6c8ebf;" parent="1" vertex="1">
          <mxGeometry x="-1837" y="290" width="120" height="40" as="geometry" />
        </mxCell>
        <mxCell id="_IWfdYFuMRl4Ee60OuGf-38" value="" style="rounded=1;whiteSpace=wrap;html=1;fillColor=none;dashed=1;" parent="1" vertex="1">
          <mxGeometry x="-1420" y="310" width="270" height="420" as="geometry" />
        </mxCell>
        <mxCell id="_IWfdYFuMRl4Ee60OuGf-39" value="&lt;font style=&quot;font-size: 20px;&quot;&gt;&lt;b&gt;ERP&lt;/b&gt;&lt;/font&gt;" style="rounded=1;whiteSpace=wrap;html=1;fillColor=#fff2cc;strokeColor=#d6b656;" parent="1" vertex="1">
          <mxGeometry x="-1345" y="290" width="120" height="40" as="geometry" />
        </mxCell>
        <mxCell id="oRAHerSJ_97y-7MN6O3I-2" value="&lt;font style=&quot;font-size: 14px;&quot;&gt;&lt;b&gt;PRODUCT&lt;/b&gt;&lt;/font&gt;" style="rounded=0;whiteSpace=wrap;html=1;fillColor=#f8cecc;strokeColor=#b85450;" vertex="1" parent="1">
          <mxGeometry x="-1700" y="530" width="180" height="30" as="geometry" />
        </mxCell>
        <mxCell id="oRAHerSJ_97y-7MN6O3I-4" value="&lt;font style=&quot;font-size: 14px;&quot;&gt;&lt;b&gt;PRODUCT&lt;/b&gt;&lt;/font&gt;" style="rounded=0;whiteSpace=wrap;html=1;fillColor=#f8cecc;strokeColor=#b85450;" vertex="1" parent="1">
          <mxGeometry x="-1400" y="410" width="190" height="30" as="geometry" />
        </mxCell>
        <mxCell id="oRAHerSJ_97y-7MN6O3I-5" value="&lt;font style=&quot;font-size: 14px;&quot;&gt;&lt;b&gt;CUSTOMER&lt;/b&gt;&lt;/font&gt;" style="rounded=0;whiteSpace=wrap;html=1;fillColor=#d5e8d4;strokeColor=#82b366;" vertex="1" parent="1">
          <mxGeometry x="-1710" y="710" width="180" height="30" as="geometry" />
        </mxCell>
        <mxCell id="oRAHerSJ_97y-7MN6O3I-6" value="&lt;font style=&quot;font-size: 14px;&quot;&gt;&lt;b&gt;CUSTOMER&lt;/b&gt;&lt;/font&gt;" style="rounded=0;whiteSpace=wrap;html=1;fillColor=#d5e8d4;strokeColor=#82b366;" vertex="1" parent="1">
          <mxGeometry x="-1390" y="550" width="180" height="30" as="geometry" />
        </mxCell>
        <mxCell id="oRAHerSJ_97y-7MN6O3I-7" value="&lt;font style=&quot;font-size: 14px;&quot;&gt;&lt;b&gt;CUSTOMER&lt;/b&gt;&lt;/font&gt;" style="rounded=0;whiteSpace=wrap;html=1;fillColor=#d5e8d4;strokeColor=#82b366;" vertex="1" parent="1">
          <mxGeometry x="-1390" y="680" width="180" height="30" as="geometry" />
        </mxCell>
        <mxCell id="oRAHerSJ_97y-7MN6O3I-8" value="&lt;font style=&quot;font-size: 14px;&quot;&gt;&lt;b&gt;SALES&lt;/b&gt;&lt;/font&gt;" style="rounded=0;whiteSpace=wrap;html=1;fillColor=#e1d5e7;strokeColor=#9673a6;" vertex="1" parent="1">
          <mxGeometry x="-2000" y="620" width="180" height="30" as="geometry" />
        </mxCell>
      </root>
    </mxGraphModel>
  </diagram>
</mxfile>
